<svg xmlns="http://www.w3.org/2000/svg" width="271" height="312" fill="none" viewBox="0 0 271 312">
  <path fill="#FFBD95" d="M416.533 187.425s-50.605 4.599-61.865 9.426c-11.255 4.828-28.971 11.489-36.694 14.732-10.524 4.419-61.037 13.849-65.357 13.683-28.872-1.11-64.456 3.735-71.302 5.813-12.341 3.75-23.34 17.452-29.118 13.339-5.643-4.018-5.995-28.886 13.092-39.517 19.086-10.63 60.047-15.655 60.047-15.655s-19.101-6.67-32.001-9.104c-12.894-2.434-72.308-12.079-84.639-14.351-12.321-2.269-61.722-11.845-68.984-14.529-7.267-2.685-21.524-5.357-19.445-18.503 1.923-12.193 15.186-12.126 28.244-10.265 13.062 1.864 52.291 8.928 68.473 10.91 15.613 1.912 46.569 6.762 53.258 4.959 6.689-1.805 11.254-8.612 11.254-8.612s-15.174-7.67-22.293-11.208c-3.238-1.607-16.506-7.938-11.909-21.918 4.303-13.092 21.693-11.126 21.693-11.126s-1.956-5.338.719-10.934c2.858-5.983 7.871-8.396 15.789-7.998 3.026.153 10.731 1.355 10.731 1.355s-1.963-5.036 1.374-10.265c3.342-5.225 12.238-5.012 17.134-4.854 4.901.159 40.157 2.16 52.32 5.001 12.164 2.842 69.16 28.323 78.627 29.78 9.466 1.46 102.716-12.166 102.716-12.166l-31.864 112.007z"/>
  <path fill="#FFC8A7" d="M20.267 132.758c.872-5.876 4.74-8.532 8.414-9.495 3.67-.964 20.436 3.066 22.42 5.329 1.98 2.261.343 16.438-2.313 18.458-3.547 2.697-18.51-.633-22.531-2.239-4.021-1.608-7.004-5.237-5.99-12.053z"/>
  <path fill="#F9A983" d="M174.847 200.604s19.391-6.528 41.511-10.049c3.149-.5 8.977-1.31 8.977-1.31s13.011 8.805 19.618 11.557c6.607 2.753 21.306 3.925 21.306 3.925s-13.684 4.849-28.737-.914c-11.604-4.443-17.682-6.872-21.92-7.847-11.791-2.71-40.755 4.638-40.755 4.638zM168.987 85.499s27.888 9.886 34.025 10.408c6.852.582 12.033-.946 12.706-3.313.955-3.319-4.103-5.105-12.094-5.524-7.986-.418-34.637-1.571-34.637-1.571zM196.225 67.921s18.954 5.41 25.412 5.509c6.458.1 10.007-.163 11.273-2.583 1.267-2.42-1.413-3.993-6.185-4.307-9.142-.605-30.5 1.381-30.5 1.381zM167.903 138.691s7.233.996 12.483-1.59c5.246-2.587 6.431-5.255 6.431-5.255l-5.322-2.096s-2.632 3.191-5.036 5.323c-3.851 3.411-8.556 3.618-8.556 3.618z"/>
  <path fill="#FFD3B9" d="M48.776 147.058l.013-.007c2.582-1.963 4.188-15.368 2.461-18.205a18.316 18.316 0 00-4.106 9.132c-.727 4.957.868 7.961 1.632 9.08z"/>
  <path fill="#F9A983" d="M368.401 173.41c-16.76 6.828-32.831 20.291-51.624 29.76-18.798 9.468-55.648 16.044-63.961 15.944-27.764-.329-57.729 4.496-65.18 7.224-15.101 5.526-14.861-7.771-14.478 8.527 2.624-1.555 5.349-2.934 8.156-3.784 6.847-2.08 42.431-6.925 71.303-5.815 4.32.165 54.833-9.263 65.356-13.683 7.724-3.243 25.44-9.904 36.695-14.732 11.26-4.827 61.865-9.426 61.865-9.426l6.101-21.447c-16.412.156-42.361 2.597-54.233 7.432z"/>
  <path fill="#FFC8A7" d="M177.604 232.188c.192-1.081-3.345-6.165-4.369-6.224-1.028-.061-16.24 7.426-18.579 11.971-2.335 4.549-2.255 8.739-1.135 9.29 1.116.55 23.885-13.936 24.083-15.037z"/>
  <path fill="#F99C94" d="M448.266 75.435c-3.839.56-93.32 13.575-102.585 12.148 9.265 1.427 98.746-11.587 102.585-12.148zM344.435 87.323zM221.18 53.126c-3.128-.18-5.436-.292-6.446-.323-4.485-.144-12.325-.336-16.181 3.649 3.856-3.985 11.696-3.793 16.181-3.65 1.01.032 3.318.144 6.446.324zM196.226 67.92c-.036-.095-1.193-3.16-.117-6.961-1.076 3.8.081 6.866.117 6.96zm-.353-.052c-1.556-.24-7.741-1.167-10.379-1.302-7.052-.355-11.801 1.52-14.771 6.16 2.97-4.64 7.719-6.515 14.771-6.16 2.638.135 8.823 1.063 10.379 1.302zm.243-6.934l-.003.01.003-.01zm-27.128 24.562c-.045-.121-1.442-4.06-.132-8.683-1.31 4.623.087 8.561.132 8.683zm-.127-8.702l-.001.006.001-.006z"/>
  <path fill="#FFC39C" d="M448.397 75.417l-12.861 45.208c-48.847 33.671-111.793 46.085-173.314 28.583-40.208-11.438-74.173-34.089-99.553-63.563 3.569-.443 6.318-.147 6.318-.147s27.888 9.886 34.026 10.409c6.851.581 12.032-.946 12.705-3.313l.002-.006c.943-3.316-4.11-5.099-12.096-5.519-7.986-.418-34.637-1.571-34.637-1.571l.001-.002c-.045-.121-1.442-4.06-.132-8.683l.004-.013.001-.006c.208-.732.484-1.478.845-2.23.312-.654.649-1.267 1.017-1.838 2.97-4.64 7.719-6.515 14.772-6.16 2.637.135 8.822 1.063 10.378 1.302l.353.053s18.954 5.411 25.412 5.509c6.457.1 10.006-.163 11.273-2.583.102-.192.177-.38.229-.563.597-2.099-2.019-3.453-6.415-3.744-9.141-.605-30.499 1.381-30.499 1.381v-.002c-.036-.094-1.193-3.16-.117-6.96a.087.087 0 00.004-.015l.003-.01c.3-1.052.772-2.16 1.485-3.277.282-.438.601-.84.952-1.205 3.856-3.985 11.696-3.793 16.181-3.65 1.011.032 3.318.144 6.447.324 12.027.697 36.219 2.421 45.873 4.678 11.405 2.665 62.21 25.224 76.316 29.235.384.11.736.205 1.065.284.476.12.893.205 1.246.26 9.265 1.427 98.746-11.587 102.585-12.148.082-.014.131-.018.131-.018z"/>
  <path fill="#FBB18B" d="M215.719 92.589l-.001.005c-.673 2.367-5.854 3.895-12.706 3.313-6.137-.522-34.025-10.408-34.025-10.408s26.651 1.153 34.637 1.57c7.985.42 13.039 2.203 12.095 5.52zM233.139 70.284c-.052.182-.126.37-.228.563-1.267 2.42-4.816 2.683-11.273 2.583-6.459-.098-25.413-5.509-25.413-5.509s21.358-1.986 30.5-1.381c4.395.291 7.011 1.645 6.414 3.744z"/>
</svg>
